PathFileType	4	(X/Y/Z)	C:\Users\WrightLab\Desktop\Jo\P5V14.trc
DataRate	CameraRate	NumFrames	NumMarkers	Units	OrigDataRate	OrigDataStartFrame	OrigNumFrames
100.00	100.00	       69	19	mm	100.00	432	       575
Frame#	Time	Headset_Front			Headset_Back			Headset_Left			Headset_Right			Left_Shoulder			Right_Shoulder			Sternum			C7			Left Elbow			Right Elbow			Left Wrist			Right Wrist			Left ASIS			Right ASIS			S2			Left Knee			Right Knee			Left Ankle			Right Ankle			
		X1	Y1	Z1	X2	Y2	Z2	X3	Y3	Z3	X4	Y4	Z4	X5	Y5	Z5	X6	Y6	Z6	X7	Y7	Z7	X8	Y8	Z8	X9	Y9	Z9	X10	Y10	Z10	X11	Y11	Z11	X12	Y12	Z12	X13	Y13	Z13	X14	Y14	Z14	X15	Y15	Z15	X16	Y16	Z16	X17	Y17	Z17	X18	Y18	Z18	X19	Y19	Z19	

432	4.310																															-551.70490	1002.82068	1308.05957				-685.11340	962.55334	1573.25171				-903.26630	993.53168	1364.84521	-687.74054	546.27222	1663.89087				-753.39709	136.70572	1736.14417	-1061.75659	160.77875	1301.70886	
433	4.320																															-555.30353	1000.07587	1311.14465				-683.73615	961.49243	1581.85913				-901.80701	992.19543	1373.97937	-687.38220	541.35376	1666.54675				-749.40485	134.68636	1754.78723	-1061.28162	162.53510	1304.52917	
434	4.330																															-557.56427	998.98157	1314.09827				-680.76886	960.74957	1590.32666				-900.55145	991.37799	1383.17432	-687.34045	537.39050	1671.69592				-745.94043	134.01279	1770.09863	-1060.97363	164.71732	1305.53540	
435	4.340																															-561.33600	996.34668	1317.16467				-679.97253	959.78961	1602.35583				-899.98798	990.90063	1391.65100	-687.53326	534.17358	1677.19470							-1060.38354	166.18681	1309.39331	
436	4.350																															-563.27100	995.35681	1321.04517				-677.25372	958.06299	1611.41614				-898.21649	988.63983	1400.52930	-687.58667	529.75708	1684.37366							-1060.29541	169.48645	1310.32751	
437	4.360																															-565.95276	993.51434	1324.71960				-673.28577	957.91498	1620.62390				-896.51422	987.17090	1409.79102	-687.63690	527.75769	1690.81628							-1060.19080	171.20490	1314.39783	
438	4.370																															-567.75879	991.29510	1330.24438				-670.04901	956.76068	1630.73792				-895.52802	986.01263	1418.57690	-686.24255	526.82935	1696.09033							-1060.67175	174.63785	1317.43958	
439	4.380																															-569.30450	990.05878	1335.68201				-667.08643	954.90521	1641.00378				-892.85638	984.18079	1428.93005	-685.80212	524.98688	1708.75037							-1061.43323	178.49051	1322.13049	
440	4.390																															-570.35120	987.89008	1339.85498				-663.22211	953.70410	1649.50073				-890.84863	981.61554	1438.14526	-683.49786	524.81781	1714.74963							-1062.22620	181.96054	1327.67578	
441	4.400																															-571.97150	986.83380	1345.85547				-660.45691	953.93707	1661.02258				-888.75616	980.14697	1447.94373	-680.88635	524.29651	1724.37317							-1062.94739	184.94023	1331.29907	
442	4.410																															-572.71460	984.45465	1352.67102				-654.69867	952.02545	1669.79028				-885.78491	977.44495	1458.39795	-677.47766	523.94324	1731.61707							-1064.62292	188.69550	1340.47998	
443	4.420																															-573.29260	983.33307	1358.57837				-649.56714	952.16003	1680.32532				-884.08832	975.55212	1467.31299	-674.65759	522.59595	1743.88086							-1066.85413	193.25056	1346.88794	
444	4.430																															-574.13385	981.49298	1364.81421				-645.01349	952.14038	1691.35327				-880.57288	974.11475	1478.58813	-671.36987	521.88556	1756.18030							-1069.22363	197.97743	1356.56226	
445	4.440																															-574.53424	980.88733	1371.36560				-640.14337	953.01971	1698.85168				-877.64557	972.82849	1488.69775	-665.81128	522.90643	1763.80664							-1071.67188	202.96156	1367.00635	
446	4.450																															-574.87219	980.42139	1379.37463				-635.20642	954.81763	1706.52380				-873.90485	971.75201	1499.56592	-659.37408	524.42511	1778.05127							-1074.35767	208.76646	1379.75598	
447	4.460																															-573.64075	981.16284	1388.28345				-630.39850	957.15845	1716.82544				-870.84332	972.08997	1509.36292	-652.58722	526.21204	1785.48608							-1076.43884	214.16870	1395.20398	
448	4.470																															-573.31000	982.16095	1394.13257				-625.65289	958.64825	1722.27759				-867.63995	972.94489	1519.33630	-644.91467	529.55304	1795.52588							-1077.85229	220.36128	1410.28223	
449	4.480																															-571.93250	982.90271	1402.61438				-620.57538	959.70227	1730.56042				-863.78943	973.51074	1529.67017	-638.20172	529.70911	1806.15930							-1078.31641	227.27005	1425.00403	
450	4.490																															-570.27728	984.02704	1411.75488				-616.76166	961.28552	1735.38416				-860.97607	974.43140	1538.86096	-630.84186	531.63428	1811.18335							-1078.66748	235.95972	1440.84155	
451	4.500																															-568.74725	985.62292	1419.77124										-857.39471	974.95728	1548.89746	-624.36322	531.83380	1820.75745							-1078.39844	244.53711	1455.78564	
452	4.510																															-566.69183	987.34265	1426.71509										-853.90021	977.22522	1556.59045	-617.85150	533.57141	1825.89319							-1077.10547	252.35706	1476.14709	
453	4.520																															-564.25897	988.86426	1435.24878													-611.23138	535.10089	1830.53137							-1076.45874	260.64639	1495.09473	
454	4.530																															-562.19867	990.76355	1443.38574													-605.19373	534.98590	1835.81982							-1074.95068	268.65112	1514.50024	
455	4.540																															-558.72815	992.72357	1452.04968													-599.65515	536.57581	1838.34167							-1073.20447	276.05270	1533.19067	
456	4.550																															-555.37195	995.16888	1460.73438													-593.92181	537.95605	1843.44006							-1070.44885	283.28787	1552.60791	
457	4.560																															-551.38770	997.01575	1468.95483													-589.10742	538.64716	1845.70959							-1066.75964	290.34003	1571.41052	
458	4.570																															-547.69122	999.34210	1477.55786													-584.27722	539.30017	1844.93384							-1062.51001	296.75961	1590.26733	
459	4.580																															-543.75787	1001.97650	1486.71448													-579.57965	540.81250	1846.14734							-1058.20398	302.18176	1610.42114	
460	4.590																															-539.79584	1004.75513	1493.89319													-574.56323	541.86523	1846.08679							-1053.37476	306.58255	1631.59802	
461	4.600																															-535.79376	1007.82263	1501.91235													-569.57727	542.48059	1847.72595							-1048.27368	309.82910	1652.62439	
462	4.610																															-531.22211	1011.26569	1510.45276													-565.31403	542.84271	1847.13049							-1042.92700	311.79800	1674.61401	
463	4.620																															-527.63190	1014.90332	1518.25244													-560.55829	541.49652	1846.10938							-1037.16870	313.19962	1696.48633	
464	4.630																															-522.82776	1018.02216	1525.60803													-556.03790	542.27441	1845.01172							-1031.25916	313.70193	1719.37231	
465	4.640																															-519.14899	1021.93115	1532.57776													-551.72839	541.98621	1844.32947							-1024.69873	313.28845	1742.02332	
466	4.650																															-515.63794	1025.68970	1540.33362													-546.88202	541.45331	1842.74585							-1018.13080	312.08569	1765.50659	
467	4.660																															-511.45135	1030.27490	1547.60083													-542.85657	541.39825	1841.32556							-1011.01593	309.71341	1790.07483	
468	4.670																															-507.90839	1034.82385	1554.09424													-538.60144	540.52032	1838.80151							-1003.36444	306.90536	1813.34399	
469	4.680																															-504.41876	1038.52966	1560.97083													-534.82104	540.58130	1837.19226							-995.63263	303.00162	1838.09595	
470	4.690																															-500.62424	1043.29419	1567.22351													-530.45264	540.57245	1835.16345							-986.96136	298.78717	1862.71167	
471	4.700																															-497.45947	1047.51392	1573.33911													-526.46143	539.79449	1832.32764							-977.46985	294.01367	1886.90662	
472	4.710																															-494.04645	1051.62830	1580.46948													-523.05615	540.08862	1830.35681							-967.01752	288.85025	1910.77039	
473	4.720																															-491.14447	1056.24573	1585.60095													-519.60645	539.74481	1826.70923							-955.98535	283.20703	1935.84753	
474	4.730																															-488.09549	1060.73401	1591.35938													-517.61591	540.05487	1824.86755							-943.95856	276.61502	1959.06665	
475	4.740																															-485.74921	1064.75317	1596.30542													-515.84271	539.35925	1821.80298							-930.98596	270.13239	1983.22998	
476	4.750																															-483.06342	1068.65942	1602.34753													-514.86859	539.16473	1817.39539							-916.55139	263.67624	2007.65234	
477	4.760																															-481.06104	1072.63525	1608.16125													-514.71863	538.99445	1814.56384							-901.46228	256.24384	2030.07581	
478	4.770																															-478.80389	1076.43445	1614.72559													-515.39398	538.16394	1808.85693							-884.99634	249.13536	2051.48535	
479	4.780																															-477.40109	1080.50073	1619.20593													-515.86499	537.91730	1806.83179							-867.44531	242.13435	2072.82300	
480	4.790																															-475.67761	1083.93921	1624.69385													-517.82483	538.01105	1802.49475							-849.05463	235.48375	2093.77686	
481	4.800																															-474.26401	1087.51648	1630.35156													-519.43921	538.06561	1799.58923							-830.67670	228.43600	2114.12744	
482	4.810																																														-522.09106	538.23920	1795.91785										
483	4.820																																														-525.22839	537.11945	1791.61194										
484	4.830																																														-528.31970	537.28955	1790.54517										
485	4.840																																														-532.13666	537.63135	1787.29492										
486	4.850																																														-535.16907	536.94183	1786.78687										
487	4.860																																														-538.95953	537.14587	1784.53613										
488	4.870																																														-541.55353	537.54108	1786.16040										
489	4.880																																														-544.68494	539.02832	1785.15576										
490	4.890																																														-547.10828	539.05316	1786.55273										
491	4.900																																														-549.58087	539.57648	1788.84827										
492	4.910																																														-550.84424	539.39441	1789.98438										
493	4.920																																														-553.01599	539.25305	1792.00830										
494	4.930																																														-554.17657	539.66156	1793.93909										
495	4.940																																														-554.93121	538.65900	1799.31970										
496	4.950																																														-555.92316	539.45874	1801.63892										
497	4.960																																														-557.06232	538.79431	1804.91089										
498	4.970																																														-557.74896	538.72809	1808.44458										
499	4.980																																														-558.71429	539.36786	1812.69019										
500	4.990																																														-559.30591	539.64026	1816.91663										
